<svg xmlns="http://www.w3.org/2000/svg" xmlns:xlink="http://www.w3.org/1999/xlink" width="174" zoomAndPan="magnify" viewBox="0 0 130.5 30.000001" height="40" preserveAspectRatio="xMidYMid meet" version="1.0"><defs><clipPath id="0f58f6e89d"><path d="M 4 5 L 26 5 L 26 26 L 4 26 Z M 4 5 " clip-rule="nonzero"/></clipPath><clipPath id="50efb783ce"><path d="M 10.460938 5.058594 C 7.183594 5.058594 4.535156 7.707031 4.535156 10.984375 L 4.535156 19.984375 C 4.535156 23.265625 7.183594 25.914062 10.460938 25.914062 L 19.460938 25.914062 C 22.742188 25.914062 25.390625 23.265625 25.390625 19.984375 L 25.390625 10.984375 C 25.390625 7.707031 22.742188 5.058594 19.460938 5.058594 Z M 10.460938 5.058594 " clip-rule="nonzero"/></clipPath><linearGradient x1="0.000023544" gradientTransform="matrix(0.0417125, -0.00000000000000001, 0.00000000000000001, 0.0417125, 4.534191, 5.057028)" y1="0.000023544" x2="500.000012" gradientUnits="userSpaceOnUse" y2="500.000012" id="041dfbcb7f"><stop stop-opacity="1" stop-color="rgb(49.01886%, 7.839966%, 11.369324%)" offset="0"/><stop stop-opacity="1" stop-color="rgb(49.217224%, 7.855225%, 11.384583%)" offset="0.00390625"/><stop stop-opacity="1" stop-color="rgb(49.417114%, 7.870483%, 11.399841%)" offset="0.0078125"/><stop stop-opacity="1" stop-color="rgb(49.615479%, 7.885742%, 11.4151%)" offset="0.0117188"/><stop stop-opacity="1" stop-color="rgb(49.815369%, 7.901001%, 11.430359%)" offset="0.015625"/><stop stop-opacity="1" stop-color="rgb(50.013733%, 7.91626%, 11.445618%)" offset="0.0195312"/><stop stop-opacity="1" stop-color="rgb(50.213623%, 7.931519%, 11.460876%)" offset="0.0234375"/><stop stop-opacity="1" stop-color="rgb(50.411987%, 7.946777%, 11.476135%)" offset="0.0273438"/><stop stop-opacity="1" stop-color="rgb(50.611877%, 7.962036%, 11.491394%)" offset="0.03125"/><stop stop-opacity="1" stop-color="rgb(50.810242%, 7.977295%, 11.506653%)" offset="0.0351562"/><stop stop-opacity="1" stop-color="rgb(51.010132%, 7.992554%, 11.521912%)" offset="0.0390625"/><stop stop-opacity="1" stop-color="rgb(51.208496%, 8.007812%, 11.53717%)" offset="0.0429688"/><stop stop-opacity="1" stop-color="rgb(51.408386%, 8.023071%, 11.552429%)" offset="0.046875"/><stop stop-opacity="1" stop-color="rgb(51.60675%, 8.03833%, 11.567688%)" offset="0.0507812"/><stop stop-opacity="1" stop-color="rgb(51.806641%, 8.053589%, 11.582947%)" offset="0.0546875"/><stop stop-opacity="1" stop-color="rgb(52.005005%, 8.068848%, 11.598206%)" offset="0.0585938"/><stop stop-opacity="1" stop-color="rgb(52.204895%, 8.084106%, 11.61499%)" offset="0.0625"/><stop stop-opacity="1" stop-color="rgb(52.403259%, 8.099365%, 11.630249%)" offset="0.0664062"/><stop stop-opacity="1" stop-color="rgb(52.603149%, 8.114624%, 11.645508%)" offset="0.0703125"/><stop stop-opacity="1" stop-color="rgb(52.801514%, 8.129883%, 11.660767%)" offset="0.0742188"/><stop stop-opacity="1" stop-color="rgb(53.001404%, 8.145142%, 11.676025%)" offset="0.078125"/><stop stop-opacity="1" stop-color="rgb(53.199768%, 8.1604%, 11.691284%)" offset="0.0820312"/><stop stop-opacity="1" stop-color="rgb(53.399658%, 8.175659%, 11.706543%)" offset="0.0859375"/><stop stop-opacity="1" stop-color="rgb(53.598022%, 8.190918%, 11.721802%)" offset="0.0898438"/><stop stop-opacity="1" stop-color="rgb(53.797913%, 8.206177%, 11.737061%)" offset="0.09375"/><stop stop-opacity="1" stop-color="rgb(53.996277%, 8.221436%, 11.752319%)" offset="0.0976562"/><stop stop-opacity="1" stop-color="rgb(54.196167%, 8.236694%, 11.767578%)" offset="0.101563"/><stop stop-opacity="1" stop-color="rgb(54.394531%, 8.251953%, 11.782837%)" offset="0.105469"/><stop stop-opacity="1" stop-color="rgb(54.594421%, 8.268738%, 11.798096%)" offset="0.109375"/><stop stop-opacity="1" stop-color="rgb(54.794312%, 8.283997%, 11.813354%)" offset="0.113281"/><stop stop-opacity="1" stop-color="rgb(54.994202%, 8.299255%, 11.828613%)" offset="0.117188"/><stop stop-opacity="1" stop-color="rgb(55.192566%, 8.314514%, 11.843872%)" offset="0.121094"/><stop stop-opacity="1" stop-color="rgb(55.392456%, 8.329773%, 11.859131%)" offset="0.125"/><stop stop-opacity="1" stop-color="rgb(55.59082%, 8.345032%, 11.87439%)" offset="0.128906"/><stop stop-opacity="1" stop-color="rgb(55.79071%, 8.360291%, 11.889648%)" offset="0.132813"/><stop stop-opacity="1" stop-color="rgb(55.989075%, 8.375549%, 11.904907%)" offset="0.136719"/><stop stop-opacity="1" stop-color="rgb(56.188965%, 8.390808%, 11.920166%)" offset="0.140625"/><stop stop-opacity="1" stop-color="rgb(56.387329%, 8.406067%, 11.935425%)" offset="0.144531"/><stop stop-opacity="1" stop-color="rgb(56.587219%, 8.421326%, 11.950684%)" offset="0.148438"/><stop stop-opacity="1" stop-color="rgb(56.785583%, 8.436584%, 11.965942%)" offset="0.152344"/><stop stop-opacity="1" stop-color="rgb(56.985474%, 8.451843%, 11.981201%)" offset="0.15625"/><stop stop-opacity="1" stop-color="rgb(57.183838%, 8.467102%, 11.99646%)" offset="0.160156"/><stop stop-opacity="1" stop-color="rgb(57.383728%, 8.482361%, 12.011719%)" offset="0.164063"/><stop stop-opacity="1" stop-color="rgb(57.582092%, 8.49762%, 12.026978%)" offset="0.167969"/><stop stop-opacity="1" stop-color="rgb(57.781982%, 8.512878%, 12.042236%)" offset="0.171875"/><stop stop-opacity="1" stop-color="rgb(57.980347%, 8.528137%, 12.057495%)" offset="0.175781"/><stop stop-opacity="1" stop-color="rgb(58.180237%, 8.543396%, 12.07428%)" offset="0.179688"/><stop stop-opacity="1" stop-color="rgb(58.378601%, 8.558655%, 12.089539%)" offset="0.183594"/><stop stop-opacity="1" stop-color="rgb(58.578491%, 8.573914%, 12.104797%)" offset="0.1875"/><stop stop-opacity="1" stop-color="rgb(58.776855%, 8.589172%, 12.120056%)" offset="0.191406"/><stop stop-opacity="1" stop-color="rgb(58.976746%, 8.604431%, 12.135315%)" offset="0.195313"/><stop stop-opacity="1" stop-color="rgb(59.17511%, 8.61969%, 12.150574%)" offset="0.199219"/><stop stop-opacity="1" stop-color="rgb(59.375%, 8.634949%, 12.165833%)" offset="0.203125"/><stop stop-opacity="1" stop-color="rgb(59.573364%, 8.650208%, 12.181091%)" offset="0.207031"/><stop stop-opacity="1" stop-color="rgb(59.773254%, 8.665466%, 12.19635%)" offset="0.210938"/><stop stop-opacity="1" stop-color="rgb(59.971619%, 8.680725%, 12.211609%)" offset="0.214844"/><stop stop-opacity="1" stop-color="rgb(60.171509%, 8.695984%, 12.226868%)" offset="0.21875"/><stop stop-opacity="1" stop-color="rgb(60.369873%, 8.711243%, 12.242126%)" offset="0.222656"/><stop stop-opacity="1" stop-color="rgb(60.569763%, 8.728027%, 12.257385%)" offset="0.226563"/><stop stop-opacity="1" stop-color="rgb(60.768127%, 8.743286%, 12.272644%)" offset="0.230469"/><stop stop-opacity="1" stop-color="rgb(60.968018%, 8.758545%, 12.287903%)" offset="0.234375"/><stop stop-opacity="1" stop-color="rgb(61.166382%, 8.773804%, 12.303162%)" offset="0.238281"/><stop stop-opacity="1" stop-color="rgb(61.366272%, 8.789062%, 12.31842%)" offset="0.242188"/><stop stop-opacity="1" stop-color="rgb(61.564636%, 8.804321%, 12.333679%)" offset="0.246094"/><stop stop-opacity="1" stop-color="rgb(61.764526%, 8.81958%, 12.348938%)" offset="0.25"/><stop stop-opacity="1" stop-color="rgb(61.962891%, 8.834839%, 12.364197%)" offset="0.253906"/><stop stop-opacity="1" stop-color="rgb(62.162781%, 8.850098%, 12.379456%)" offset="0.257813"/><stop stop-opacity="1" stop-color="rgb(62.361145%, 8.865356%, 12.394714%)" offset="0.261719"/><stop stop-opacity="1" stop-color="rgb(62.561035%, 8.880615%, 12.409973%)" offset="0.265625"/><stop stop-opacity="1" stop-color="rgb(62.759399%, 8.895874%, 12.425232%)" offset="0.269531"/><stop stop-opacity="1" stop-color="rgb(62.95929%, 8.911133%, 12.440491%)" offset="0.273438"/><stop stop-opacity="1" stop-color="rgb(63.157654%, 8.926392%, 12.45575%)" offset="0.277344"/><stop stop-opacity="1" stop-color="rgb(63.357544%, 8.94165%, 12.471008%)" offset="0.28125"/><stop stop-opacity="1" stop-color="rgb(63.555908%, 8.956909%, 12.486267%)" offset="0.285156"/><stop stop-opacity="1" stop-color="rgb(63.755798%, 8.972168%, 12.503052%)" offset="0.289062"/><stop stop-opacity="1" stop-color="rgb(63.954163%, 8.987427%, 12.518311%)" offset="0.292969"/><stop stop-opacity="1" stop-color="rgb(64.154053%, 9.002686%, 12.533569%)" offset="0.296875"/><stop stop-opacity="1" stop-color="rgb(64.352417%, 9.017944%, 12.548828%)" offset="0.300781"/><stop stop-opacity="1" stop-color="rgb(64.552307%, 9.033203%, 12.564087%)" offset="0.304688"/><stop stop-opacity="1" stop-color="rgb(64.750671%, 9.048462%, 12.579346%)" offset="0.308594"/><stop stop-opacity="1" stop-color="rgb(64.950562%, 9.063721%, 12.594604%)" offset="0.3125"/><stop stop-opacity="1" stop-color="rgb(65.148926%, 9.078979%, 12.609863%)" offset="0.316406"/><stop stop-opacity="1" stop-color="rgb(65.348816%, 9.094238%, 12.625122%)" offset="0.320313"/><stop stop-opacity="1" stop-color="rgb(65.54718%, 9.109497%, 12.640381%)" offset="0.324219"/><stop stop-opacity="1" stop-color="rgb(65.74707%, 9.124756%, 12.65564%)" offset="0.328125"/><stop stop-opacity="1" stop-color="rgb(65.945435%, 9.140015%, 12.670898%)" offset="0.332031"/><stop stop-opacity="1" stop-color="rgb(66.145325%, 9.156799%, 12.686157%)" offset="0.335938"/><stop stop-opacity="1" stop-color="rgb(66.343689%, 9.172058%, 12.701416%)" offset="0.339844"/><stop stop-opacity="1" stop-color="rgb(66.543579%, 9.187317%, 12.716675%)" offset="0.34375"/><stop stop-opacity="1" stop-color="rgb(66.741943%, 9.202576%, 12.731934%)" offset="0.347656"/><stop stop-opacity="1" stop-color="rgb(66.941833%, 9.217834%, 12.747192%)" offset="0.351563"/><stop stop-opacity="1" stop-color="rgb(67.140198%, 9.233093%, 12.762451%)" offset="0.355469"/><stop stop-opacity="1" stop-color="rgb(67.340088%, 9.248352%, 12.77771%)" offset="0.359375"/><stop stop-opacity="1" stop-color="rgb(67.538452%, 9.263611%, 12.792969%)" offset="0.363281"/><stop stop-opacity="1" stop-color="rgb(67.738342%, 9.27887%, 12.808228%)" offset="0.367188"/><stop stop-opacity="1" stop-color="rgb(67.936707%, 9.294128%, 12.823486%)" offset="0.371094"/><stop stop-opacity="1" stop-color="rgb(68.136597%, 9.309387%, 12.838745%)" offset="0.375"/><stop stop-opacity="1" stop-color="rgb(68.334961%, 9.324646%, 12.854004%)" offset="0.378906"/><stop stop-opacity="1" stop-color="rgb(68.534851%, 9.339905%, 12.869263%)" offset="0.382813"/><stop stop-opacity="1" stop-color="rgb(68.733215%, 9.355164%, 12.884521%)" offset="0.386719"/><stop stop-opacity="1" stop-color="rgb(68.933105%, 9.370422%, 12.89978%)" offset="0.390625"/><stop stop-opacity="1" stop-color="rgb(69.13147%, 9.385681%, 12.915039%)" offset="0.394531"/><stop stop-opacity="1" stop-color="rgb(69.33136%, 9.40094%, 12.931824%)" offset="0.398438"/><stop stop-opacity="1" stop-color="rgb(69.529724%, 9.416199%, 12.947083%)" offset="0.402344"/><stop stop-opacity="1" stop-color="rgb(69.729614%, 9.431458%, 12.962341%)" offset="0.40625"/><stop stop-opacity="1" stop-color="rgb(69.927979%, 9.446716%, 12.9776%)" offset="0.410156"/><stop stop-opacity="1" stop-color="rgb(70.127869%, 9.461975%, 12.992859%)" offset="0.414063"/><stop stop-opacity="1" stop-color="rgb(70.326233%, 9.477234%, 13.008118%)" offset="0.417969"/><stop stop-opacity="1" stop-color="rgb(70.526123%, 9.492493%, 13.023376%)" offset="0.421875"/><stop stop-opacity="1" stop-color="rgb(70.724487%, 9.507751%, 13.038635%)" offset="0.425781"/><stop stop-opacity="1" stop-color="rgb(70.924377%, 9.52301%, 13.053894%)" offset="0.429688"/><stop stop-opacity="1" stop-color="rgb(71.122742%, 9.538269%, 13.069153%)" offset="0.433594"/><stop stop-opacity="1" stop-color="rgb(71.322632%, 9.553528%, 13.084412%)" offset="0.4375"/><stop stop-opacity="1" stop-color="rgb(71.520996%, 9.568787%, 13.09967%)" offset="0.441406"/><stop stop-opacity="1" stop-color="rgb(71.720886%, 9.585571%, 13.114929%)" offset="0.445313"/><stop stop-opacity="1" stop-color="rgb(71.91925%, 9.60083%, 13.130188%)" offset="0.449219"/><stop stop-opacity="1" stop-color="rgb(72.119141%, 9.616089%, 13.145447%)" offset="0.453125"/><stop stop-opacity="1" stop-color="rgb(72.317505%, 9.631348%, 13.160706%)" offset="0.457031"/><stop stop-opacity="1" stop-color="rgb(72.517395%, 9.646606%, 13.175964%)" offset="0.460938"/><stop stop-opacity="1" stop-color="rgb(72.715759%, 9.661865%, 13.191223%)" offset="0.464844"/><stop stop-opacity="1" stop-color="rgb(72.915649%, 9.677124%, 13.206482%)" offset="0.46875"/><stop stop-opacity="1" stop-color="rgb(73.114014%, 9.692383%, 13.221741%)" offset="0.472656"/><stop stop-opacity="1" stop-color="rgb(73.313904%, 9.707642%, 13.237%)" offset="0.476563"/><stop stop-opacity="1" stop-color="rgb(73.512268%, 9.7229%, 13.252258%)" offset="0.480469"/><stop stop-opacity="1" stop-color="rgb(73.712158%, 9.738159%, 13.267517%)" offset="0.484375"/><stop stop-opacity="1" stop-color="rgb(73.910522%, 9.753418%, 13.282776%)" offset="0.488281"/><stop stop-opacity="1" stop-color="rgb(74.110413%, 9.768677%, 13.298035%)" offset="0.492188"/><stop stop-opacity="1" stop-color="rgb(74.308777%, 9.783936%, 13.313293%)" offset="0.496094"/><stop stop-opacity="1" stop-color="rgb(74.508667%, 9.799194%, 13.328552%)" offset="0.5"/><stop stop-opacity="1" stop-color="rgb(74.707031%, 9.814453%, 13.343811%)" offset="0.503906"/><stop stop-opacity="1" stop-color="rgb(74.906921%, 9.829712%, 13.360596%)" offset="0.507812"/><stop stop-opacity="1" stop-color="rgb(75.105286%, 9.844971%, 13.375854%)" offset="0.511719"/><stop stop-opacity="1" stop-color="rgb(75.305176%, 9.860229%, 13.391113%)" offset="0.515625"/><stop stop-opacity="1" stop-color="rgb(75.50354%, 9.875488%, 13.406372%)" offset="0.519531"/><stop stop-opacity="1" stop-color="rgb(75.70343%, 9.890747%, 13.421631%)" offset="0.523438"/><stop stop-opacity="1" stop-color="rgb(75.901794%, 9.906006%, 13.43689%)" offset="0.527344"/><stop stop-opacity="1" stop-color="rgb(76.101685%, 9.921265%, 13.452148%)" offset="0.53125"/><stop stop-opacity="1" stop-color="rgb(76.300049%, 9.936523%, 13.467407%)" offset="0.535156"/><stop stop-opacity="1" stop-color="rgb(76.499939%, 9.951782%, 13.482666%)" offset="0.539062"/><stop stop-opacity="1" stop-color="rgb(76.698303%, 9.967041%, 13.497925%)" offset="0.542969"/><stop stop-opacity="1" stop-color="rgb(76.898193%, 9.9823%, 13.513184%)" offset="0.546875"/><stop stop-opacity="1" stop-color="rgb(77.096558%, 9.997559%, 13.528442%)" offset="0.550781"/><stop stop-opacity="1" stop-color="rgb(77.296448%, 10.014343%, 13.543701%)" offset="0.554687"/><stop stop-opacity="1" stop-color="rgb(77.496338%, 10.029602%, 13.55896%)" offset="0.558594"/><stop stop-opacity="1" stop-color="rgb(77.696228%, 10.044861%, 13.574219%)" offset="0.5625"/><stop stop-opacity="1" stop-color="rgb(77.894592%, 10.06012%, 13.589478%)" offset="0.566406"/><stop stop-opacity="1" stop-color="rgb(78.094482%, 10.075378%, 13.604736%)" offset="0.570312"/><stop stop-opacity="1" stop-color="rgb(78.292847%, 10.090637%, 13.619995%)" offset="0.574219"/><stop stop-opacity="1" stop-color="rgb(78.492737%, 10.105896%, 13.635254%)" offset="0.578125"/><stop stop-opacity="1" stop-color="rgb(78.691101%, 10.121155%, 13.650513%)" offset="0.582031"/><stop stop-opacity="1" stop-color="rgb(78.890991%, 10.136414%, 13.665771%)" offset="0.585938"/><stop stop-opacity="1" stop-color="rgb(79.089355%, 10.151672%, 13.68103%)" offset="0.589844"/><stop stop-opacity="1" stop-color="rgb(79.289246%, 10.166931%, 13.696289%)" offset="0.59375"/><stop stop-opacity="1" stop-color="rgb(79.48761%, 10.18219%, 13.711548%)" offset="0.597656"/><stop stop-opacity="1" stop-color="rgb(79.6875%, 10.197449%, 13.726807%)" offset="0.601562"/><stop stop-opacity="1" stop-color="rgb(79.885864%, 10.212708%, 13.742065%)" offset="0.605469"/><stop stop-opacity="1" stop-color="rgb(80.085754%, 10.227966%, 13.757324%)" offset="0.609375"/><stop stop-opacity="1" stop-color="rgb(80.284119%, 10.243225%, 13.772583%)" offset="0.613281"/><stop stop-opacity="1" stop-color="rgb(80.484009%, 10.258484%, 13.789368%)" offset="0.617188"/><stop stop-opacity="1" stop-color="rgb(80.682373%, 10.273743%, 13.804626%)" offset="0.621094"/><stop stop-opacity="1" stop-color="rgb(80.882263%, 10.289001%, 13.819885%)" offset="0.625"/><stop stop-opacity="1" stop-color="rgb(81.080627%, 10.30426%, 13.835144%)" offset="0.628906"/><stop stop-opacity="1" stop-color="rgb(81.280518%, 10.319519%, 13.850403%)" offset="0.632812"/><stop stop-opacity="1" stop-color="rgb(81.478882%, 10.334778%, 13.865662%)" offset="0.636719"/><stop stop-opacity="1" stop-color="rgb(81.678772%, 10.350037%, 13.88092%)" offset="0.640625"/><stop stop-opacity="1" stop-color="rgb(81.877136%, 10.365295%, 13.896179%)" offset="0.644531"/><stop stop-opacity="1" stop-color="rgb(82.077026%, 10.380554%, 13.911438%)" offset="0.648438"/><stop stop-opacity="1" stop-color="rgb(82.275391%, 10.395813%, 13.926697%)" offset="0.652344"/><stop stop-opacity="1" stop-color="rgb(82.475281%, 10.411072%, 13.941956%)" offset="0.65625"/><stop stop-opacity="1" stop-color="rgb(82.673645%, 10.426331%, 13.957214%)" offset="0.660156"/><stop stop-opacity="1" stop-color="rgb(82.873535%, 10.443115%, 13.972473%)" offset="0.664062"/><stop stop-opacity="1" stop-color="rgb(83.071899%, 10.458374%, 13.987732%)" offset="0.667969"/><stop stop-opacity="1" stop-color="rgb(83.27179%, 10.473633%, 14.002991%)" offset="0.671875"/><stop stop-opacity="1" stop-color="rgb(83.470154%, 10.488892%, 14.01825%)" offset="0.675781"/><stop stop-opacity="1" stop-color="rgb(83.670044%, 10.50415%, 14.033508%)" offset="0.679688"/><stop stop-opacity="1" stop-color="rgb(83.868408%, 10.519409%, 14.048767%)" offset="0.683594"/><stop stop-opacity="1" stop-color="rgb(84.068298%, 10.534668%, 14.064026%)" offset="0.6875"/><stop stop-opacity="1" stop-color="rgb(84.266663%, 10.549927%, 14.079285%)" offset="0.691406"/><stop stop-opacity="1" stop-color="rgb(84.466553%, 10.565186%, 14.094543%)" offset="0.695312"/><stop stop-opacity="1" stop-color="rgb(84.664917%, 10.580444%, 14.109802%)" offset="0.699219"/><stop stop-opacity="1" stop-color="rgb(84.864807%, 10.595703%, 14.125061%)" offset="0.703125"/><stop stop-opacity="1" stop-color="rgb(85.063171%, 10.610962%, 14.14032%)" offset="0.707031"/><stop stop-opacity="1" stop-color="rgb(85.263062%, 10.626221%, 14.155579%)" offset="0.710938"/><stop stop-opacity="1" stop-color="rgb(85.461426%, 10.641479%, 14.170837%)" offset="0.714844"/><stop stop-opacity="1" stop-color="rgb(85.661316%, 10.656738%, 14.186096%)" offset="0.71875"/><stop stop-opacity="1" stop-color="rgb(85.85968%, 10.671997%, 14.201355%)" offset="0.722656"/><stop stop-opacity="1" stop-color="rgb(86.05957%, 10.687256%, 14.216614%)" offset="0.726562"/><stop stop-opacity="1" stop-color="rgb(86.257935%, 10.702515%, 14.231873%)" offset="0.730469"/><stop stop-opacity="1" stop-color="rgb(86.457825%, 10.717773%, 14.248657%)" offset="0.734375"/><stop stop-opacity="1" stop-color="rgb(86.656189%, 10.733032%, 14.263916%)" offset="0.738281"/><stop stop-opacity="1" stop-color="rgb(86.856079%, 10.748291%, 14.279175%)" offset="0.742188"/><stop stop-opacity="1" stop-color="rgb(87.054443%, 10.76355%, 14.294434%)" offset="0.746094"/><stop stop-opacity="1" stop-color="rgb(87.254333%, 10.778809%, 14.309692%)" offset="0.75"/><stop stop-opacity="1" stop-color="rgb(87.452698%, 10.794067%, 14.324951%)" offset="0.753906"/><stop stop-opacity="1" stop-color="rgb(87.652588%, 10.809326%, 14.34021%)" offset="0.757812"/><stop stop-opacity="1" stop-color="rgb(87.850952%, 10.824585%, 14.355469%)" offset="0.761719"/><stop stop-opacity="1" stop-color="rgb(88.050842%, 10.839844%, 14.370728%)" offset="0.765625"/><stop stop-opacity="1" stop-color="rgb(88.249207%, 10.855103%, 14.385986%)" offset="0.769531"/><stop stop-opacity="1" stop-color="rgb(88.449097%, 10.870361%, 14.401245%)" offset="0.773438"/><stop stop-opacity="1" stop-color="rgb(88.647461%, 10.88562%, 14.416504%)" offset="0.777344"/><stop stop-opacity="1" stop-color="rgb(88.847351%, 10.902405%, 14.431763%)" offset="0.78125"/><stop stop-opacity="1" stop-color="rgb(89.045715%, 10.917664%, 14.447021%)" offset="0.785156"/><stop stop-opacity="1" stop-color="rgb(89.245605%, 10.932922%, 14.46228%)" offset="0.789062"/><stop stop-opacity="1" stop-color="rgb(89.44397%, 10.948181%, 14.477539%)" offset="0.792969"/><stop stop-opacity="1" stop-color="rgb(89.64386%, 10.96344%, 14.492798%)" offset="0.796875"/><stop stop-opacity="1" stop-color="rgb(89.842224%, 10.978699%, 14.508057%)" offset="0.800781"/><stop stop-opacity="1" stop-color="rgb(90.042114%, 10.993958%, 14.523315%)" offset="0.804688"/><stop stop-opacity="1" stop-color="rgb(90.240479%, 11.009216%, 14.538574%)" offset="0.808594"/><stop stop-opacity="1" stop-color="rgb(90.440369%, 11.024475%, 14.553833%)" offset="0.8125"/><stop stop-opacity="1" stop-color="rgb(90.638733%, 11.039734%, 14.569092%)" offset="0.816406"/><stop stop-opacity="1" stop-color="rgb(90.838623%, 11.054993%, 14.584351%)" offset="0.820312"/><stop stop-opacity="1" stop-color="rgb(91.036987%, 11.070251%, 14.599609%)" offset="0.824219"/><stop stop-opacity="1" stop-color="rgb(91.236877%, 11.08551%, 14.614868%)" offset="0.828125"/><stop stop-opacity="1" stop-color="rgb(91.435242%, 11.100769%, 14.630127%)" offset="0.832031"/><stop stop-opacity="1" stop-color="rgb(91.635132%, 11.116028%, 14.645386%)" offset="0.835938"/><stop stop-opacity="1" stop-color="rgb(91.833496%, 11.131287%, 14.660645%)" offset="0.839844"/><stop stop-opacity="1" stop-color="rgb(92.033386%, 11.146545%, 14.677429%)" offset="0.84375"/><stop stop-opacity="1" stop-color="rgb(92.23175%, 11.161804%, 14.692688%)" offset="0.847656"/><stop stop-opacity="1" stop-color="rgb(92.431641%, 11.177063%, 14.707947%)" offset="0.851562"/><stop stop-opacity="1" stop-color="rgb(92.630005%, 11.192322%, 14.723206%)" offset="0.855469"/><stop stop-opacity="1" stop-color="rgb(92.829895%, 11.207581%, 14.738464%)" offset="0.859375"/><stop stop-opacity="1" stop-color="rgb(93.028259%, 11.222839%, 14.753723%)" offset="0.863281"/><stop stop-opacity="1" stop-color="rgb(93.228149%, 11.238098%, 14.768982%)" offset="0.867188"/><stop stop-opacity="1" stop-color="rgb(93.426514%, 11.253357%, 14.784241%)" offset="0.871094"/><stop stop-opacity="1" stop-color="rgb(93.626404%, 11.268616%, 14.7995%)" offset="0.875"/><stop stop-opacity="1" stop-color="rgb(93.824768%, 11.283875%, 14.814758%)" offset="0.878906"/><stop stop-opacity="1" stop-color="rgb(94.024658%, 11.299133%, 14.830017%)" offset="0.882812"/><stop stop-opacity="1" stop-color="rgb(94.223022%, 11.314392%, 14.845276%)" offset="0.886719"/><stop stop-opacity="1" stop-color="rgb(94.422913%, 11.331177%, 14.860535%)" offset="0.890625"/><stop stop-opacity="1" stop-color="rgb(94.621277%, 11.346436%, 14.875793%)" offset="0.894531"/><stop stop-opacity="1" stop-color="rgb(94.821167%, 11.361694%, 14.891052%)" offset="0.898438"/><stop stop-opacity="1" stop-color="rgb(95.019531%, 11.376953%, 14.906311%)" offset="0.902344"/><stop stop-opacity="1" stop-color="rgb(95.219421%, 11.392212%, 14.92157%)" offset="0.90625"/><stop stop-opacity="1" stop-color="rgb(95.417786%, 11.407471%, 14.936829%)" offset="0.910156"/><stop stop-opacity="1" stop-color="rgb(95.617676%, 11.422729%, 14.952087%)" offset="0.914062"/><stop stop-opacity="1" stop-color="rgb(95.81604%, 11.437988%, 14.967346%)" offset="0.917969"/><stop stop-opacity="1" stop-color="rgb(96.01593%, 11.453247%, 14.982605%)" offset="0.921875"/><stop stop-opacity="1" stop-color="rgb(96.214294%, 11.468506%, 14.997864%)" offset="0.925781"/><stop stop-opacity="1" stop-color="rgb(96.414185%, 11.483765%, 15.013123%)" offset="0.929688"/><stop stop-opacity="1" stop-color="rgb(96.612549%, 11.499023%, 15.028381%)" offset="0.933594"/><stop stop-opacity="1" stop-color="rgb(96.812439%, 11.514282%, 15.04364%)" offset="0.9375"/><stop stop-opacity="1" stop-color="rgb(97.010803%, 11.529541%, 15.058899%)" offset="0.941406"/><stop stop-opacity="1" stop-color="rgb(97.210693%, 11.5448%, 15.074158%)" offset="0.945313"/><stop stop-opacity="1" stop-color="rgb(97.409058%, 11.560059%, 15.089417%)" offset="0.949219"/><stop stop-opacity="1" stop-color="rgb(97.608948%, 11.575317%, 15.106201%)" offset="0.953125"/><stop stop-opacity="1" stop-color="rgb(97.807312%, 11.590576%, 15.12146%)" offset="0.957031"/><stop stop-opacity="1" stop-color="rgb(98.007202%, 11.605835%, 15.136719%)" offset="0.960938"/><stop stop-opacity="1" stop-color="rgb(98.205566%, 11.621094%, 15.151978%)" offset="0.964844"/><stop stop-opacity="1" stop-color="rgb(98.405457%, 11.636353%, 15.167236%)" offset="0.96875"/><stop stop-opacity="1" stop-color="rgb(98.603821%, 11.651611%, 15.182495%)" offset="0.972656"/><stop stop-opacity="1" stop-color="rgb(98.803711%, 11.66687%, 15.197754%)" offset="0.976562"/><stop stop-opacity="1" stop-color="rgb(99.002075%, 11.682129%, 15.213013%)" offset="0.980469"/><stop stop-opacity="1" stop-color="rgb(99.201965%, 11.697388%, 15.228271%)" offset="0.984375"/><stop stop-opacity="1" stop-color="rgb(99.40033%, 11.712646%, 15.24353%)" offset="0.988281"/><stop stop-opacity="1" stop-color="rgb(99.60022%, 11.727905%, 15.258789%)" offset="0.992188"/><stop stop-opacity="1" stop-color="rgb(99.80011%, 11.743164%, 15.274048%)" offset="0.996094"/><stop stop-opacity="1" stop-color="rgb(100%, 11.759949%, 15.289307%)" offset="1"/></linearGradient></defs><path fill="#ffffff" d="M 31.242188 22.085938 L 31.242188 13.734375 L 29.269531 13.734375 L 29.269531 11.824219 L 31.953125 11.824219 L 31.242188 12.472656 L 31.242188 10.910156 C 31.242188 9.636719 31.558594 8.675781 32.195312 8.023438 C 32.847656 7.375 33.789062 7.046875 35.019531 7.046875 C 35.320312 7.046875 35.628906 7.070312 35.957031 7.109375 C 36.292969 7.148438 36.585938 7.222656 36.828125 7.332031 L 36.828125 9.324219 C 36.652344 9.257812 36.441406 9.203125 36.199219 9.160156 C 35.957031 9.121094 35.71875 9.101562 35.488281 9.101562 C 34.960938 9.101562 34.539062 9.257812 34.226562 9.566406 C 33.917969 9.867188 33.761719 10.355469 33.761719 11.03125 L 33.761719 12.269531 L 33.394531 11.824219 L 40.527344 11.824219 L 40.527344 22.085938 L 37.988281 22.085938 L 37.988281 13.734375 L 33.78125 13.734375 L 33.78125 22.085938 Z M 37.84375 9.894531 L 37.84375 7.414062 L 40.671875 7.414062 L 40.671875 9.894531 Z M 43.292969 22.085938 L 43.292969 14.382812 C 43.292969 13.964844 43.277344 13.539062 43.25 13.105469 C 43.222656 12.671875 43.183594 12.242188 43.128906 11.824219 L 45.585938 11.824219 L 45.789062 13.855469 L 45.546875 13.855469 C 45.871094 13.136719 46.351562 12.589844 46.988281 12.210938 C 47.625 11.816406 48.363281 11.621094 49.203125 11.621094 C 50.410156 11.621094 51.320312 11.960938 51.929688 12.636719 C 52.539062 13.3125 52.84375 14.371094 52.84375 15.808594 L 52.84375 22.085938 L 50.300781 22.085938 L 50.300781 15.929688 C 50.300781 15.101562 50.140625 14.511719 49.816406 14.160156 C 49.503906 13.796875 49.027344 13.613281 48.390625 13.613281 C 47.605469 13.613281 46.984375 13.855469 46.523438 14.34375 C 46.0625 14.832031 45.832031 15.480469 45.832031 16.296875 L 45.832031 22.085938 Z M 59.5 22.289062 C 58.605469 22.289062 57.820312 22.082031 57.140625 21.660156 C 56.464844 21.226562 55.9375 20.609375 55.554688 19.8125 C 55.175781 19.011719 54.988281 18.054688 54.988281 16.945312 C 54.988281 15.835938 55.175781 14.886719 55.554688 14.101562 C 55.9375 13.300781 56.464844 12.691406 57.140625 12.269531 C 57.820312 11.835938 58.605469 11.621094 59.5 11.621094 C 60.367188 11.621094 61.125 11.835938 61.773438 12.269531 C 62.4375 12.691406 62.878906 13.261719 63.097656 13.976562 L 62.871094 13.976562 L 63.097656 11.824219 L 65.535156 11.824219 C 65.496094 12.242188 65.453125 12.671875 65.414062 13.105469 C 65.386719 13.539062 65.371094 13.964844 65.371094 14.382812 L 65.371094 22.085938 L 62.851562 22.085938 L 62.832031 19.972656 L 63.074219 19.972656 C 62.859375 20.679688 62.417969 21.238281 61.753906 21.660156 C 61.089844 22.082031 60.339844 22.289062 59.5 22.289062 Z M 60.210938 20.339844 C 61.007812 20.339844 61.652344 20.0625 62.140625 19.507812 C 62.628906 18.9375 62.871094 18.082031 62.871094 16.945312 C 62.871094 15.808594 62.628906 14.960938 62.140625 14.40625 C 61.652344 13.847656 61.007812 13.570312 60.210938 13.570312 C 59.410156 13.570312 58.765625 13.847656 58.28125 14.40625 C 57.792969 14.960938 57.546875 15.808594 57.546875 16.945312 C 57.546875 18.082031 57.785156 18.9375 58.257812 19.507812 C 58.746094 20.0625 59.398438 20.339844 60.210938 20.339844 Z M 68.136719 22.085938 L 68.136719 14.382812 C 68.136719 13.964844 68.125 13.539062 68.097656 13.105469 C 68.070312 12.671875 68.03125 12.242188 67.976562 11.824219 L 70.433594 11.824219 L 70.636719 13.855469 L 70.394531 13.855469 C 70.71875 13.136719 71.199219 12.589844 71.835938 12.210938 C 72.472656 11.816406 73.210938 11.621094 74.050781 11.621094 C 75.257812 11.621094 76.164062 11.960938 76.777344 12.636719 C 77.386719 13.3125 77.691406 14.371094 77.691406 15.808594 L 77.691406 22.085938 L 75.148438 22.085938 L 75.148438 15.929688 C 75.148438 15.101562 74.988281 14.511719 74.660156 14.160156 C 74.351562 13.796875 73.875 13.613281 73.238281 13.613281 C 72.453125 13.613281 71.832031 13.855469 71.371094 14.34375 C 70.910156 14.832031 70.679688 15.480469 70.679688 16.296875 L 70.679688 22.085938 Z M 85.097656 22.289062 C 84.042969 22.289062 83.113281 22.074219 82.3125 21.640625 C 81.527344 21.207031 80.917969 20.589844 80.484375 19.789062 C 80.050781 18.976562 79.835938 18.015625 79.835938 16.90625 C 79.835938 15.792969 80.050781 14.84375 80.484375 14.058594 C 80.933594 13.273438 81.550781 12.671875 82.335938 12.25 C 83.121094 11.832031 84.042969 11.621094 85.097656 11.621094 C 85.777344 11.621094 86.433594 11.730469 87.070312 11.945312 C 87.71875 12.148438 88.25 12.449219 88.65625 12.839844 L 87.882812 14.609375 C 87.515625 14.269531 87.105469 14.019531 86.644531 13.855469 C 86.195312 13.679688 85.757812 13.59375 85.320312 13.59375 C 84.414062 13.59375 83.703125 13.875 83.1875 14.445312 C 82.6875 15.015625 82.4375 15.839844 82.4375 16.925781 C 82.4375 18.007812 82.6875 18.84375 83.1875 19.425781 C 83.703125 20.007812 84.414062 20.296875 85.320312 20.296875 C 85.742188 20.296875 86.175781 20.21875 86.621094 20.054688 C 87.082031 19.890625 87.503906 19.640625 87.882812 19.304688 L 88.65625 21.050781 C 88.234375 21.445312 87.699219 21.75 87.050781 21.964844 C 86.414062 22.183594 85.761719 22.289062 85.097656 22.289062 Z M 95.382812 22.289062 C 93.664062 22.289062 92.316406 21.816406 91.339844 20.867188 C 90.363281 19.917969 89.878906 18.617188 89.878906 16.964844 C 89.878906 15.894531 90.085938 14.960938 90.507812 14.160156 C 90.925781 13.363281 91.511719 12.738281 92.253906 12.292969 C 93.015625 11.84375 93.894531 11.621094 94.898438 11.621094 C 95.886719 11.621094 96.710938 11.832031 97.375 12.25 C 98.039062 12.671875 98.542969 13.261719 98.878906 14.019531 C 99.234375 14.777344 99.410156 15.664062 99.410156 16.679688 L 99.410156 17.351562 L 91.929688 17.351562 L 91.929688 16.011719 L 97.601562 16.011719 L 97.253906 16.296875 C 97.253906 15.347656 97.050781 14.621094 96.644531 14.121094 C 96.25 13.621094 95.675781 13.367188 94.917969 13.367188 C 94.078125 13.367188 93.425781 13.667969 92.964844 14.261719 C 92.519531 14.859375 92.296875 15.691406 92.296875 16.761719 L 92.296875 17.027344 C 92.296875 18.136719 92.566406 18.972656 93.109375 19.527344 C 93.664062 20.066406 94.441406 20.339844 95.445312 20.339844 C 96.027344 20.339844 96.570312 20.265625 97.070312 20.117188 C 97.585938 19.953125 98.074219 19.695312 98.535156 19.34375 L 99.285156 21.050781 C 98.796875 21.445312 98.214844 21.75 97.539062 21.964844 C 96.863281 22.183594 96.144531 22.289062 95.382812 22.289062 Z M 101.273438 22.085938 L 101.273438 19.261719 L 104.121094 19.261719 L 104.121094 22.085938 Z M 110.503906 22.289062 C 109.609375 22.289062 108.824219 22.082031 108.144531 21.660156 C 107.46875 21.226562 106.941406 20.609375 106.5625 19.8125 C 106.183594 19.011719 105.992188 18.054688 105.992188 16.945312 C 105.992188 15.835938 106.183594 14.886719 106.5625 14.101562 C 106.941406 13.300781 107.46875 12.691406 108.144531 12.269531 C 108.824219 11.835938 109.609375 11.621094 110.503906 11.621094 C 111.371094 11.621094 112.128906 11.835938 112.78125 12.269531 C 113.445312 12.691406 113.882812 13.261719 114.101562 13.976562 L 113.878906 13.976562 L 114.101562 11.824219 L 116.539062 11.824219 C 116.5 12.242188 116.457031 12.671875 116.417969 13.105469 C 116.390625 13.539062 116.378906 13.964844 116.378906 14.382812 L 116.378906 22.085938 L 113.855469 22.085938 L 113.835938 19.972656 L 114.082031 19.972656 C 113.863281 20.679688 113.421875 21.238281 112.757812 21.660156 C 112.097656 22.082031 111.34375 22.289062 110.503906 22.289062 Z M 111.214844 20.339844 C 112.015625 20.339844 112.65625 20.0625 113.144531 19.507812 C 113.632812 18.9375 113.878906 18.082031 113.878906 16.945312 C 113.878906 15.808594 113.632812 14.960938 113.144531 14.40625 C 112.65625 13.847656 112.015625 13.570312 111.214844 13.570312 C 110.414062 13.570312 109.773438 13.847656 109.285156 14.40625 C 108.796875 14.960938 108.554688 15.808594 108.554688 16.945312 C 108.554688 18.082031 108.789062 18.9375 109.265625 19.507812 C 109.75 20.0625 110.402344 20.339844 111.214844 20.339844 Z M 119.144531 22.085938 L 119.144531 11.824219 L 121.683594 11.824219 L 121.683594 22.085938 Z M 119 9.894531 L 119 7.414062 L 121.828125 7.414062 L 121.828125 9.894531 Z M 119 9.894531 " fill-opacity="1" fill-rule="nonzero"/><path fill="#a6a6a6" d="M 11.816406 3.460938 C 8.269531 2.917969 4.964844 5.347656 4.421875 8.894531 L 2.9375 18.632812 C 2.394531 22.179688 4.824219 25.484375 8.371094 26.023438 L 18.109375 27.511719 C 21.65625 28.054688 24.960938 25.625 25.5 22.078125 L 26.988281 12.339844 C 27.53125 8.792969 25.101562 5.488281 21.554688 4.945312 Z M 11.816406 3.460938 " fill-opacity="0.3" fill-rule="nonzero"/><g clip-path="url(#0f58f6e89d)"><g clip-path="url(#50efb783ce)"><path fill="url(#041dfbcb7f)" d="M 4.535156 5.058594 L 4.535156 25.914062 L 25.390625 25.914062 L 25.390625 5.058594 Z M 4.535156 5.058594 " fill-rule="nonzero"/></g></g><path fill="#ffffff" d="M 11.492188 21.296875 C 11.492188 21.613281 11.234375 21.875 10.914062 21.875 L 10.625 21.875 C 9.027344 21.875 7.734375 20.578125 7.734375 18.984375 L 7.734375 17.039062 C 7.734375 16.875 7.664062 16.71875 7.542969 16.609375 L 6.480469 15.652344 C 6.359375 15.542969 6.289062 15.386719 6.289062 15.222656 C 6.289062 15.058594 6.359375 14.902344 6.480469 14.792969 L 7.542969 13.835938 C 7.664062 13.726562 7.734375 13.570312 7.734375 13.40625 L 7.734375 11.464844 C 7.734375 9.867188 9.027344 8.574219 10.625 8.574219 L 10.914062 8.574219 C 11.234375 8.574219 11.492188 8.832031 11.492188 9.152344 C 11.492188 9.472656 11.234375 9.730469 10.914062 9.730469 L 10.625 9.730469 C 9.667969 9.730469 8.890625 10.507812 8.890625 11.464844 L 8.890625 13.40625 C 8.890625 13.898438 8.679688 14.367188 8.316406 14.695312 L 7.730469 15.222656 L 8.316406 15.75 C 8.679688 16.078125 8.890625 16.546875 8.890625 17.039062 L 8.890625 18.984375 C 8.890625 19.941406 9.667969 20.71875 10.625 20.71875 L 10.914062 20.71875 C 11.234375 20.71875 11.492188 20.976562 11.492188 21.296875 Z M 11.492188 21.296875 " fill-opacity="1" fill-rule="nonzero"/><path fill="#ffffff" d="M 18.433594 21.296875 C 18.433594 21.613281 18.691406 21.875 19.011719 21.875 L 19.300781 21.875 C 20.894531 21.875 22.191406 20.578125 22.191406 18.984375 L 22.191406 17.039062 C 22.191406 16.875 22.261719 16.71875 22.382812 16.609375 L 23.445312 15.652344 C 23.566406 15.542969 23.636719 15.386719 23.636719 15.222656 C 23.636719 15.058594 23.566406 14.902344 23.445312 14.792969 L 22.382812 13.835938 C 22.261719 13.726562 22.191406 13.570312 22.191406 13.40625 L 22.191406 11.464844 C 22.191406 9.867188 20.894531 8.574219 19.300781 8.574219 L 19.011719 8.574219 C 18.691406 8.574219 18.433594 8.832031 18.433594 9.152344 C 18.433594 9.472656 18.691406 9.730469 19.011719 9.730469 L 19.300781 9.730469 C 20.257812 9.730469 21.035156 10.507812 21.035156 11.464844 L 21.035156 13.40625 C 21.035156 13.898438 21.242188 14.367188 21.609375 14.695312 L 22.195312 15.222656 L 21.609375 15.75 C 21.242188 16.078125 21.035156 16.546875 21.035156 17.039062 L 21.035156 18.984375 C 21.035156 19.941406 20.257812 20.71875 19.300781 20.71875 L 19.011719 20.71875 C 18.691406 20.71875 18.433594 20.976562 18.433594 21.296875 Z M 18.433594 21.296875 " fill-opacity="1" fill-rule="nonzero"/><path fill="#ffffff" d="M 12.070312 15.800781 C 12.390625 15.800781 12.648438 15.542969 12.648438 15.222656 C 12.648438 14.90625 12.390625 14.644531 12.070312 14.644531 C 11.75 14.644531 11.492188 14.90625 11.492188 15.222656 C 11.492188 15.542969 11.75 15.800781 12.070312 15.800781 Z M 12.070312 15.800781 " fill-opacity="1" fill-rule="nonzero"/><path fill="#ffffff" d="M 14.960938 15.800781 C 15.28125 15.800781 15.539062 15.542969 15.539062 15.222656 C 15.539062 14.90625 15.28125 14.644531 14.960938 14.644531 C 14.644531 14.644531 14.382812 14.90625 14.382812 15.222656 C 14.382812 15.542969 14.644531 15.800781 14.960938 15.800781 Z M 14.960938 15.800781 " fill-opacity="1" fill-rule="nonzero"/><path fill="#ffffff" d="M 18.433594 15.222656 C 18.433594 15.542969 18.171875 15.800781 17.855469 15.800781 C 17.535156 15.800781 17.277344 15.542969 17.277344 15.222656 C 17.277344 14.90625 17.535156 14.644531 17.855469 14.644531 C 18.171875 14.644531 18.433594 14.90625 18.433594 15.222656 Z M 18.433594 15.222656 " fill-opacity="1" fill-rule="nonzero"/></svg>